<?xml version="1.0" encoding="iso-8859-1"?>
<!-- Generator: Adobe Illustrator 19.0.0, SVG Export Plug-In . SVG Version: 6.00 Build 0)  -->
<svg version="1.1" id="Capa_1" xmlns="http://www.w3.org/2000/svg" xmlns:xlink="http://www.w3.org/1999/xlink" x="0px" y="0px"
	 viewBox="0 0 480 480" style="enable-background:new 0 0 480 480;" xml:space="preserve">
<g>
	<g>
		<path d="M423.896,159.496c-0.04-0.701-0.177-1.393-0.408-2.056c-0.088-0.256-0.152-0.504-0.264-0.752
			c-0.389-0.87-0.931-1.664-1.6-2.344l-152-152c-0.681-0.671-1.478-1.213-2.352-1.6c-0.24-0.104-0.472-0.168-0.72-0.256
			c-0.683-0.238-1.397-0.378-2.12-0.416C264.304,0.08,264.16,0,264,0H64c-4.418,0-8,3.582-8,8v464c0,4.418,3.582,8,8,8h352
			c4.418,0,8-3.582,8-8V160C424,159.824,423.912,159.672,423.896,159.496z M272,27.312L396.688,152H272V27.312z M408,464H72V16h184
			v144c0,4.418,3.582,8,8,8h144V464z"/>
	</g>
</g>
<g>
	<g>
		<path d="M200.208,224c-0.069,0-0.139,0-0.208,0h0c-61.856-0.057-112.046,50.04-112.104,111.896S137.937,447.943,199.792,448
			c42.466,0.039,81.302-23.942,100.288-61.928c7.847-15.524,11.93-32.677,11.92-50.072C312.057,274.202,262.007,224.057,200.208,224
			z M200,240c39.098-0.138,74.336,23.556,88.96,59.816L203.944,326.4l-41.904-78.552C174.03,242.683,186.945,240.013,200,240z
			 M200,432L200,432c-53.019-0.016-95.987-43.009-95.971-96.029c0.01-32.576,16.538-62.924,43.899-80.603l45.016,84.4l0.056,0.08
			c0.128,0.232,0.312,0.416,0.456,0.632c0.262,0.411,0.559,0.799,0.888,1.16l0.104,0.112c0.179,0.147,0.366,0.283,0.56,0.408
			c0.372,0.303,0.771,0.571,1.192,0.8c0.08,0.04,0.136,0.112,0.224,0.16l85.488,42.744C264.607,414.562,233.512,432.076,200,432z
			 M289.08,371.6l-67.752-33.88l10.856-3.4l61.528-19.224c1.524,6.863,2.291,13.873,2.288,20.904
			C296.013,348.202,293.663,360.291,289.08,371.6z"/>
	</g>
</g>
<g>
	<g>
		<rect x="88" y="32" width="128" height="16"/>
	</g>
</g>
<g>
	<g>
		<rect x="88" y="64" width="128" height="16"/>
	</g>
</g>
<g>
	<g>
		<rect x="88" y="96" width="128" height="16"/>
	</g>
</g>
<g>
	<g>
		<rect x="88" y="128" width="72" height="16"/>
	</g>
</g>
<g>
	<g>
		<rect x="88" y="160" width="72" height="16"/>
	</g>
</g>
<g>
	<g>
		<rect x="320" y="200" width="72" height="16"/>
	</g>
</g>
<g>
	<g>
		<rect x="320" y="232" width="72" height="16"/>
	</g>
</g>
<g>
	<g>
		<rect x="368" y="264" width="24" height="16"/>
	</g>
</g>
<g>
	<g>
		<rect x="328" y="408" width="64" height="16"/>
	</g>
</g>
<g>
</g>
<g>
</g>
<g>
</g>
<g>
</g>
<g>
</g>
<g>
</g>
<g>
</g>
<g>
</g>
<g>
</g>
<g>
</g>
<g>
</g>
<g>
</g>
<g>
</g>
<g>
</g>
<g>
</g>
</svg>
