<svg height="512pt" viewBox="-13 0 512 512" width="512pt" xmlns="http://www.w3.org/2000/svg"><path d="m315.558594 412.628906h-249.285156c-8.285157 0-15 6.714844-15 15s6.714843 15 15 15h249.285156c8.285156 0 15-6.714844 15-15s-6.714844-15-15-15zm0 0"/><path d="m464.027344 314.457031-82.195313-61.867187v-237.589844c0-8.285156-6.71875-15-15-15h-351.832031c-8.285156 0-15 6.714844-15 15v482c0 8.285156 6.714844 15 15 15h351.832031c8.28125 0 15-6.714844 15-15v-99.347656l7.980469 7.027344c14.351562 12.71875 56.992188 28.289062 84.152344-6.671876 25.777344-36.183593 7.332031-71.636718-9.9375-83.550781zm-112.195313 167.542969h-321.832031v-452h321.832031v200.011719l-22.277343-16.769531c3.90625-14.480469 5.195312-29.695313 3.675781-45.0625-2.796875-28.269532-14.796875-54.191407-34.199219-74.429688h16.527344c8.285156 0 15-6.714844 15-15s-6.714844-15-15-15h-60.789063c-30.722656-12.375-65.035156-12.125-95.289062 0h-93.207031c-8.285157 0-15 6.714844-15 15s6.714843 15 15 15h48.875c-2.089844 2.191406-4.117188 4.464844-6.074219 6.835938-8.320313 10.078124-14.910157 21.179687-19.679688 32.941406h-23.121093c-8.285157 0-15 6.714844-15 15 0 8.28125 6.714843 15 15 15h15.15625c-1.296876 9.613281-1.492188 19.441406-.511719 29.335937.347656 3.519531.847656 7 1.476562 10.4375h-16.121093c-8.285157 0-15 6.714844-15 15 0 8.285157 6.714843 15 15 15h25.625c6.902343 14.921875 16.746093 28.414063 29.148437 39.777344h-54.773437c-8.285157 0-15 6.714844-15 15 0 8.28125 6.714843 15 15 15 0 0 108.253906-.175781 109.429687-.46875 10.265625 2.585937 20.769531 3.871094 31.25 3.871094 19.441406 0 38.808594-4.414063 56.441406-13.074219l57.167969 50.320312c-1.566406-.558593-3.246094-.875-5.003906-.875h-249.285156c-8.285157 0-15 6.714844-15 15 0 8.285157 6.714843 15 15 15h249.285156c8.285156 0 15-6.714843 15-15 0-2.433593-.589844-4.722656-1.621094-6.753906l22.894531 20.148438zm-46.757812-221.539062c4.828125-5.855469 9.074219-12.050782 12.722656-18.519532l27.171875 20.453125-30.042969 36.402344-25.511719-22.453125c5.589844-4.75 10.835938-10.042969 15.660157-15.882812zm-23.140625-19.097657c-33.839844 41-94.960938 47.007813-136.25 13.382813-19.984375-16.277344-32.382813-39.304688-34.910156-64.839844-2.523438-25.476562 5.089843-50.417969 21.441406-70.226562 19.109375-23.15625 46.917968-35.148438 74.941406-35.148438 21.601562 0 43.332031 7.128906 61.308594 21.765625 19.984375 16.277344 32.382812 39.304687 34.910156 64.839844 2.523438 25.476562-5.09375 50.417969-21.441406 70.226562zm168.894531 137.550781c-6.804687 9.074219-23.113281 15.191407-41.191406 3.246094l-72.183594-63.53125 31.511719-38.175781 77.019531 57.972656c15.242187 11.222657 10.996094 32.667969 4.84375 40.488281zm0 0"/></svg>