<?xml version="1.0" encoding="iso-8859-1"?>
<!-- Generator: Adobe Illustrator 17.1.0, SVG Export Plug-In . SVG Version: 6.00 Build 0)  -->
<!DOCTYPE svg PUBLIC "-//W3C//DTD SVG 1.1//EN" "http://www.w3.org/Graphics/SVG/1.1/DTD/svg11.dtd">
<svg version="1.1" id="Capa_1" xmlns="http://www.w3.org/2000/svg" xmlns:xlink="http://www.w3.org/1999/xlink" x="0px" y="0px"
	 viewBox="0 0 412.43 412.43" style="enable-background:new 0 0 412.43 412.43;" xml:space="preserve">
<path d="M213.285,34.45c1.86,1.86,2.931,4.44,2.931,7.07c0,2.63-1.07,5.21-2.931,7.07c-1.859,1.86-4.439,2.93-7.069,2.93
	s-5.21-1.07-7.07-2.93s-2.93-4.44-2.93-7.07c0-2.63,1.069-5.21,2.93-7.07c1.86-1.86,4.44-2.93,7.07-2.93
	S211.425,32.59,213.285,34.45z M382.215,137.363v265.498c0,5.523-4.585,9.57-10.107,9.57H40.323c-5.522,0-10.107-4.047-10.107-9.57
	V137.363c0-5.523,4.585-9.932,10.107-9.932h123.893v-27h-8.152c-5.522,0-10-4.477-10-10c0-5.523,4.478-10,10-10h8.152V42.159
	c0-23.247,18.751-42.159,42-42.159s42,18.913,42,42.159V80.43h8.152c5.522,0,10,4.477,10,10c0,5.523-4.478,10-10,10h-8.152v27
	h123.893C377.63,127.43,382.215,131.84,382.215,137.363z M184.215,80.43h44V42.159c0-12.219-9.779-22.159-22-22.159
	s-22,9.941-22,22.159V80.43z M184.215,127.43h44v-27h-44V127.43z M362.215,147.43H238.378h-64.326H50.215v245h312V147.43z
	 M112.357,250.876c-6.263-6.502-13.573-18.43-12.829-38.332c0.946-25.272,21.605-37.493,40.4-38.153
	c0.232-0.008,0.469-0.008,0.701,0c18.793,0.66,39.45,12.881,40.396,38.152c0.744,19.903-6.566,31.831-12.829,38.333
	c-7.437,7.719-17.352,11.97-27.92,11.97S119.793,258.595,112.357,250.876z M126.761,237c3.631,3.77,8.432,5.846,13.516,5.846
	s9.885-2.076,13.516-5.846c5.122-5.317,7.628-13.516,7.247-23.709c-0.496-13.263-11.411-18.452-20.761-18.898
	c-9.352,0.446-20.269,5.635-20.765,18.898C119.133,223.485,121.639,231.683,126.761,237z M196.388,352.915
	c0.541,2.921-0.245,5.83-2.145,8.114c-1.9,2.284-4.718,3.402-7.688,3.402H93.998c-2.652,0-5.195-0.849-7.071-2.725
	c-1.875-1.875-2.929-4.215-2.929-6.867c0-0.919,0-0.919,7.829-43.184c4.589-24.787,27.64-35.882,48.448-35.882
	c20.808,0,43.859,11.095,48.452,35.882L196.388,352.915z M174.533,344.43l-5.471-29.388c-2.499-13.487-16.259-19.372-28.786-19.372
	s-26.285,5.935-28.782,19.422c0,0.001-3.208,17.338-5.473,29.338H174.533z M281.504,327.43h-39.267c-5.522,0-10,4.477-10,10
	s4.478,10,10,10h39.267c5.522,0,10-4.477,10-10S287.027,327.43,281.504,327.43z M232.238,301.43c0,5.523,4.478,10,10,10h73.194
	c5.522,0,10-4.477,10-10s-4.478-10-10-10h-73.194C236.715,291.43,232.238,295.907,232.238,301.43z M263.899,213.957
	c0-15.428,12.552-27.979,27.98-27.979c15.428,0,27.979,12.552,27.979,27.979c0,15.428-12.551,27.98-27.979,27.98
	C276.451,241.937,263.899,229.385,263.899,213.957z M283.899,213.957c0,4.4,3.58,7.98,7.98,7.98c4.399,0,7.979-3.58,7.979-7.98
	c0-4.4-3.579-7.979-7.979-7.979C287.479,205.978,283.899,209.557,283.899,213.957z"/>
<g>
</g>
<g>
</g>
<g>
</g>
<g>
</g>
<g>
</g>
<g>
</g>
<g>
</g>
<g>
</g>
<g>
</g>
<g>
</g>
<g>
</g>
<g>
</g>
<g>
</g>
<g>
</g>
<g>
</g>
</svg>
